<svg xmlns="http://www.w3.org/2000/svg" width="853" height="200" viewBox="0 0 853 200">
  <style>
    .logo { fill: #111; }
    @media (prefers-color-scheme: dark) { .logo { fill: #fff; } }
  </style>
<g class="logo">
<path d="M1056.4499969482422 699.1699981689453 662.3600006103516 357.09999084472656 268.27000427246094 699.1699981689453H80.0V0.0H248.07000732421875V494.1499938964844L619.1100006103516 172.07998657226562H705.6100006103516L1076.6499938964844 494.1499938964844V0.0H1244.7200012207031V699.1699981689453Z" transform="translate(-5.945,169.180) scale(0.200000,-0.200000)"/>
<path fill-rule="evenodd" d="M 40.00 -8.54 L 1074.82 -8.54 L 1074.82 699.92 L 40.00 699.92 Z M 157.00 108.46 L 957.82 108.46 L 957.82 582.92 L 157.00 582.92 Z" transform="translate(258.999,169.180) scale(0.200000,-0.200000)"/>
<path d="M996.7294158935547 0.2630767822265625 775.8700408935547 210.7391815185547C870.0665283203125 258.9952697753906 930.5827331542969 338.8587188720703 930.5827331542969 430.98228454589844C930.5827331542969 581.7919006347656 768.5681457519531 699.9203338623047 561.7523193359375 699.9203338623047H79.00468444824219V0.2630615234375H247.0792999267578V162.05355834960938H561.7523345947266C570.3895111083984 162.33367919921875 578.9146270751953 162.33367919921875 587.4023895263672 162.74452209472656L758.0915069580078 0.2723846435546875H996.7294464111328ZM247.0699920654297 538.1671752929688H561.7430267333984C676.6500396728516 538.1671752929688 762.4988250732422 481.5820617675781 762.4988250732422 430.9916076660156C762.4988250732422 380.4011535644531 676.6500396728516 323.8160400390625 561.7430267333984 323.8160400390625H247.0699920654297Z" transform="translate(482.162,169.180) scale(0.200000,-0.200000)"/>
<path d="M767.1824035644531 532.2659149169922V700.3405303955078H80.0V-3.705352783203125H248.07461547851562V264.7191467285156H722.2691192626953V432.79376220703125H248.07461547851562V532.2659149169922Z" transform="translate(689.508,169.180) scale(0.200000,-0.200000)"/>
</g>
</svg>
